<?xml version="1.0" encoding="utf-8"?>
<!-- Generator: Adobe Illustrator 18.0.0, SVG Export Plug-In . SVG Version: 6.00 Build 0)  -->
<!DOCTYPE svg PUBLIC "-//W3C//DTD SVG 1.1//EN" "http://www.w3.org/Graphics/SVG/1.1/DTD/svg11.dtd">
<svg xmlns="http://www.w3.org/2000/svg" xmlns:xlink="http://www.w3.org/1999/xlink" version="1.1" id="Layer_1" x="0px" y="0px" viewBox="0 0 1400 980" enable-background="new 0 0 1400 980" xml:space="preserve">

<g>
	<g>
		<g>
			<path d="M413.3,295.9c-61.8,0-102.9-19.7-118.8-29c0.7-2.6,1.5-5.2,2.4-7.9c9.2-27.2,26.9-56,61.2-62.1c39-6,78.6-6,117.6,0     c36.9,6.6,54.6,39.4,63.1,68.3C521.4,274.9,475.8,295.9,413.3,295.9z"/>
		</g>
		<g>
			<path d="M546.7,312c-39.8,39.8-129.8,37.6-129.8,37.6s-90,2.2-129.8-37.6c0,0,0.2-8.6,2.2-21.2c14.9,9.4,55.8,30.3,124,30.3     c66.3,0,112.6-19.7,131.3-29.3C546.5,303.8,546.7,312,546.7,312z"/>
		</g>
		<g>
			<path d="M678.2,381.5c-47.4,71.8-261.3,68.1-261.3,68.1s-213.9,3.7-261.3-68.1c-12.4-18.8-4.9-44.4,15.5-53.9     c13.3-6.2,33.5-11.1,63.8-10c-2.3,7-1.8,15.1-0.2,24.6c8.9,55.9,8.8,55.7,8.9,55.9l4.9,32.1l17-28.8c0.3-0.5,7.6-13,14.5-28.1     c5.9-13,9-22.8,10.6-30.2c22.8,13.5,63.9,28.6,126.4,28.6c119.1,0,152.2-51.5,152.2-51.5c47.4-6.4,76.3-0.6,93.6,7.4     C683.1,337.1,690.6,362.7,678.2,381.5z"/>
		</g>
		<g>
			<path d="M416.9,310.5c-63.1,0-107-19.4-127.5-30.9c-4.8-2.7-10.6-2.7-15.4,0.1c-4.8,2.8-7.7,7.7-7.8,13.2l0,0.5h-5l0-0.6     c0.1-7.3,4-13.8,10.3-17.5c6.4-3.7,14-3.7,20.3-0.1c20.1,11.3,63.1,30.3,125,30.3c61.3,0,104.1-18.6,124.1-29.8l2.4,4.4     C523,291.5,479.3,310.5,416.9,310.5z"/>
		</g>
		<g>
			<circle cx="263.7" cy="292.8" r="5.8"/>
		</g>
		<g>
			<path d="M252.5,395.8c0,0-2.7-27-7.9-57.3c-3.3-19.5,5.3-26.5,11.9-29.1c1.3,6.1,5.1,28.8,0.8,62.8c0,0,8.6-28.7,4.9-64.1     c0.6-0.1,0.9-0.1,0.9-0.1s14.6,1.4,17.6,20.2C284.1,348.5,252.5,395.8,252.5,395.8z"/>
		</g>
		<g>
			<path d="M266.2,359.8l-5-0.6c3.3-26.1,0-65.7,0-66.1l5-0.4C266.2,293,269.5,333.1,266.2,359.8z"/>
		</g>
	</g>
	<g>
		<g>
			<path d="M824.9,335.4l-4.2-4.3c0.5-0.5,53.4-52.1,53.4-85.2c0-27-22.3-40.2-68.3-40.2s-68.3,13.1-68.3,40.2     c0,33.1,52.9,84.7,53.4,85.2l-4.2,4.3c-2.3-2.2-55.2-53.9-55.2-89.6c0-30.6,25-46.2,74.3-46.2c49.3,0,74.3,15.5,74.3,46.2     C880.1,281.5,827.2,333.2,824.9,335.4z"/>
		</g>
		<g>
			<circle cx="788.9" cy="333.3" r="9.6"/>
		</g>
		<g>
			<circle cx="822.9" cy="333.3" r="9.6"/>
		</g>
		<g>
			<path d="M791.9,468.1h-6c0-33.5,4.8-66.7,14.3-98.8l0.1-0.4c-11.2-8.9-14.5-25.9-14.5-35.7l0-3h37v6H792     c0.5,5.8,2.4,18.7,10.2,26.4l0.7-2.2c0.2-6.7,5.8-12.1,12.5-12.1c4.6,0,8.7,2.4,11,6.4s2.2,8.8-0.3,12.7l-0.7,1.1     c-2.6,4.3-7.5,6.6-12.4,5.9c-2.7-0.4-5.1-1.2-7.4-2.2C796.5,403.4,791.9,435.7,791.9,468.1z M807.3,366.4c1.9,1,4.1,1.7,6.5,2.1     c2.5,0.4,5-0.8,6.4-3.1l0.7-1.1c1.3-2.1,1.3-4.5,0.1-6.6s-3.3-3.4-5.7-3.4c-3.6,0-6.6,2.9-6.6,6.6v0.4L807.3,366.4z"/>
		</g>
		<g>
			<path d="M825.9,468.3h-6c0-32.5-4.6-64.8-13.8-96c-2.2,1-4.7,1.8-7.4,2.2c-4.9,0.7-9.8-1.6-12.4-5.9l-0.7-1.1     c-2.4-3.9-2.5-8.7-0.3-12.7s6.3-6.4,11-6.4c6.8,0,12.3,5.4,12.5,12.1l0.7,2.2c7.8-7.7,9.7-20.6,10.2-26.4h-30.9v-6h37l0,3     c0,9.8-3.3,26.8-14.5,35.7l0.1,0.2C821,401.4,825.9,434.7,825.9,468.3z M796.3,354.4c-2.4,0-4.5,1.3-5.7,3.4s-1.1,4.6,0.1,6.6     l0.7,1.1c1.4,2.3,3.9,3.5,6.4,3.1c2.4-0.4,4.6-1.1,6.5-2.1l-1.5-5.1v-0.4C802.9,357.3,799.9,354.4,796.3,354.4z"/>
		</g>
		<g>
			<path d="M792.8,478.1h-6.6c-3.3,0-6-2.7-6-6v0c0-3.3,2.7-6,6-6h6.6c3.3,0,6,2.7,6,6v0C798.8,475.4,796.2,478.1,792.8,478.1z"/>
		</g>
		<g>
			<path d="M785.5,478.1c0,0-9.2,16.9-11.3,38.2h30.6c0,0-1.2-19.8-11-38.2H785.5z"/>
		</g>
		<g>
			<path d="M826.2,478.1h-6.6c-3.3,0-6-2.7-6-6v0c0-3.3,2.7-6,6-6h6.6c3.3,0,6,2.7,6,6v0C832.2,475.4,829.5,478.1,826.2,478.1z"/>
		</g>
		<g>
			<path d="M818.9,478.1c0,0-9.2,16.9-11.3,38.2h30.6c0,0-1.2-19.8-11-38.2H818.9z"/>
		</g>
	</g>
	<g>
		<g>
			<path d="M1010.4,471.3l-6-0.5c0-0.2,2-25.7-9.2-101.5c-7.5-50.4-0.6-93.2,6.5-120.2c7.7-29.4,17-46.6,17.4-47.3l5.3,2.9     c-0.4,0.7-37.2,69.5-23.2,163.8C1012.5,445.2,1010.5,470.3,1010.4,471.3z"/>
		</g>
		<g>
			<path d="M1056.4,445.8l-15.3-9.4c-3.5,66-29.5,82.5-29.5,82.5s-26.7-34-24.8-69.3l-9.9,11.6c0,0-20.3-48.7-13.6-94.2l-9.7,6.9     c0,0-3.8-43.9,19.9-71.3l-17.1,3.3c0,0,7.7-42.3,50.3-54.3c0,0-12.3,44.7-9.1,81.1c3.1,36.3,13.1,107.9,12.5,129.7     c0,0,5.6-42.2,1.3-85.4c-4.3-43.2-6.4-78,4.9-119.6c8.8,6.7,21.6,19.9,28.5,43.7l-16.9-6c0,0,22.3,31.4,26.3,67.1     c0,0-9-2-16.1-4.9C1038.2,357.3,1055.8,394,1056.4,445.8z"/>
		</g>
	</g>
	<g>
		<g>
			<g>
				<path d="M1010.4,611.6h-5V608c0-7.2,3-14.2,8.5-19.7c0.7-0.7,1.3-1.5,1.8-2.5c1.5-2.9,1.6-6.3,0.2-9.1c-1.5-3-4.1-4.5-7.9-4.5      c-8.7,0-9.2,8.3-9.2,9.3l-5-0.1c0-0.1,0.1-3.5,1.8-6.9c1.7-3.3,5.2-7.2,12.4-7.2c7.2,0,10.7,3.9,12.4,7.2      c2.2,4.2,2.1,9.3-0.2,13.7c-0.7,1.4-1.7,2.7-2.7,3.7c-4.5,4.5-7,10.2-7,16.1V611.6z"/>
			</g>
			<g>
				<path d="M1010.5,671.4C1010.5,671.4,1010.5,671.4,1010.5,671.4c-14.5,0-28.4-3.7-40-10.7l-2.4-1.4l39.7-53.6l45.3,53.5l-2.5,1.5      C1038.8,667.7,1025,671.4,1010.5,671.4z M975.4,657.8c10.4,5.6,22.5,8.6,35.1,8.6c12.5,0,24.5-2.9,34.9-8.5l-37.4-44.2      L975.4,657.8z"/>
			</g>
			<g>
				<path d="M1049.2,658.5c-11.5,6.9-24.4,9.7-37.3,9.7c-0.5,0-0.9,0-1.4,0c-0.5,0-0.9,0-1.4,0c-12.9,0-25.9-2.8-37.4-9.7l-12,15.2      c0,0,19.9,14.1,50.8,14.1c31,0,50.8-14.1,50.8-14.1L1049.2,658.5z"/>
				<path d="M1010.5,690.4c-31.4,0-51.5-14-52.3-14.6l-2.1-1.5l15-19l1.9,1.1c10.3,6.2,22.5,9.3,36.1,9.3c0.4,0,0.9,0,1.3,0l0.1,0      l0.1,0c0.4,0,0.9,0,1.3,0c13.6,0,25.7-3.1,36.1-9.3l1.9-1.1l15.1,19l-2.1,1.5C1062,676.4,1041.9,690.4,1010.5,690.4z       M963.4,673.1c5.9,3.5,23.2,12.3,47.2,12.3c24,0,41.2-8.8,47.1-12.3l-9-11.4c-10.7,5.9-23,8.9-36.7,8.9c-0.5,0-0.9,0-1.4,0      c-0.5,0-0.9,0-1.4,0c-13.7,0-26.1-3-36.8-8.9L963.4,673.1z"/>
			</g>
		</g>
		<g>
			<g>
				<g>
					<path d="M963.8,687.9c0,0-13.4,17,0,32.8C977.1,704.9,963.8,687.9,963.8,687.9z"/>
					<path d="M963.8,724.6l-1.9-2.3c-14.5-17.1-0.2-35.8-0.1-35.9l2-2.5l2,2.5c0.1,0.2,14.4,18.8-0.1,35.9L963.8,724.6z        M963.8,692.5c-2.6,4.8-6.2,14.4,0,24C970,706.9,966.4,697.3,963.8,692.5z"/>
				</g>
				<g>
					<line x1="963.8" y1="675.3" x2="963.8" y2="755.6"/>
					<rect x="961.3" y="675.3" width="5" height="80.4"/>
				</g>
				<g>
					<circle cx="963.8" cy="735.9" r="7.1"/>
					<path d="M963.8,745.5c-5.3,0-9.6-4.3-9.6-9.6s4.3-9.6,9.6-9.6s9.6,4.3,9.6,9.6S969.1,745.5,963.8,745.5z M963.8,731.3       c-2.5,0-4.6,2.1-4.6,4.6s2.1,4.6,4.6,4.6s4.6-2.1,4.6-4.6S966.3,731.3,963.8,731.3z"/>
				</g>
				<g>
					<rect x="957.4" y="755.1" transform="matrix(0.7071 0.7071 -0.7071 0.7071 820.7308 -458.4564)" width="12.7" height="12.7"/>
					<path d="M963.8,774l-12.5-12.5l12.5-12.5l12.5,12.5L963.8,774z M958.3,761.5l5.5,5.5l5.5-5.5l-5.5-5.5L958.3,761.5z"/>
				</g>
			</g>
			<g>
				<g>
					<path d="M1010.5,703.5c0,0-13.4,17,0,32.8C1023.9,720.5,1010.5,703.5,1010.5,703.5z"/>
					<path d="M1010.5,740.1l-1.9-2.3c-14.5-17.1-0.2-35.8-0.1-35.9l2-2.5l2,2.5c0.1,0.2,14.4,18.8-0.1,35.9L1010.5,740.1z        M1010.5,708.1c-2.6,4.8-6.3,14.4,0,24C1016.8,722.4,1013.2,712.8,1010.5,708.1z"/>
				</g>
				<g>
					<line x1="1010.5" y1="687.9" x2="1010.5" y2="771.2"/>
					<rect x="1008" y="687.9" width="5" height="83.3"/>
				</g>
				<g>
					<circle cx="1010.5" cy="751.4" r="7.1"/>
					<path d="M1010.5,761.1c-5.3,0-9.6-4.3-9.6-9.6s4.3-9.6,9.6-9.6s9.6,4.3,9.6,9.6S1015.8,761.1,1010.5,761.1z M1010.5,746.8       c-2.5,0-4.6,2.1-4.6,4.6s2.1,4.6,4.6,4.6s4.6-2.1,4.6-4.6S1013.1,746.8,1010.5,746.8z"/>
				</g>
				<g>
					<rect x="1004.1" y="770.6" transform="matrix(0.7071 0.7071 -0.7071 0.7071 845.4131 -486.9529)" width="12.7" height="12.7"/>
					<path d="M1010.5,789.6L998,777l12.5-12.5L1023,777L1010.5,789.6z M1005,777l5.5,5.5l5.5-5.5l-5.5-5.5L1005,777z"/>
				</g>
			</g>
			<g>
				<g>
					<path d="M987,697.6c0,0-13.4,17,0,32.8C1000.3,714.6,987,697.6,987,697.6z"/>
					<path d="M987,734.2l-1.9-2.3c-14.5-17.1-0.2-35.8-0.1-35.9l2-2.5l2,2.5c0.1,0.2,14.4,18.8-0.1,35.9L987,734.2z M987,702.2       c-2.6,4.8-6.3,14.4,0,24C993.3,716.5,989.6,706.9,987,702.2z"/>
				</g>
				<g>
					<line x1="987" y1="684.9" x2="987" y2="765.3"/>
					<rect x="984.5" y="684.9" width="5" height="80.4"/>
				</g>
				<g>
					<circle cx="987" cy="745.5" r="7.1"/>
					<path d="M987,755.2c-5.3,0-9.6-4.3-9.6-9.6s4.3-9.6,9.6-9.6s9.6,4.3,9.6,9.6S992.3,755.2,987,755.2z M987,740.9       c-2.5,0-4.6,2.1-4.6,4.6s2.1,4.6,4.6,4.6s4.6-2.1,4.6-4.6S989.5,740.9,987,740.9z"/>
				</g>
				<g>
					<rect x="980.6" y="764.8" transform="matrix(0.7071 0.7071 -0.7071 0.7071 834.359 -472.0519)" width="12.7" height="12.7"/>
					<path d="M987,783.7l-12.5-12.5l12.5-12.5l12.5,12.5L987,783.7z M981.5,771.1l5.5,5.5l5.5-5.5l-5.5-5.5L981.5,771.1z"/>
				</g>
			</g>
			<g>
				<g>
					<path d="M1057.2,687.9c0,0,13.4,17,0,32.8C1043.9,704.9,1057.2,687.9,1057.2,687.9z"/>
					<path d="M1057.2,724.6l-1.9-2.3c-14.5-17.1-0.2-35.8-0.1-35.9l2-2.5l2,2.5c0.1,0.2,14.4,18.8-0.1,35.9L1057.2,724.6z        M1057.2,692.5c-2.6,4.8-6.2,14.4,0,24C1063.5,706.9,1059.9,697.3,1057.2,692.5z"/>
				</g>
				<g>
					<line x1="1057.2" y1="675.3" x2="1057.2" y2="755.6"/>
					<rect x="1054.7" y="675.3" width="5" height="80.4"/>
				</g>
				<g>
					<circle cx="1057.2" cy="735.9" r="7.1"/>
					<path d="M1057.2,745.5c-5.3,0-9.6-4.3-9.6-9.6s4.3-9.6,9.6-9.6s9.6,4.3,9.6,9.6S1062.5,745.5,1057.2,745.5z M1057.2,731.3       c-2.5,0-4.6,2.1-4.6,4.6s2.1,4.6,4.6,4.6s4.6-2.1,4.6-4.6S1059.8,731.3,1057.2,731.3z"/>
				</g>
				<g>
					
						<rect x="1050.9" y="755.1" transform="matrix(-0.7071 0.7071 -0.7071 -0.7071 2343.2666 552.3175)" width="12.7" height="12.7"/>
					<path d="M1057.2,774l-12.5-12.5l12.5-12.5l12.5,12.5L1057.2,774z M1051.8,761.5l5.5,5.5l5.5-5.5l-5.5-5.5L1051.8,761.5z"/>
				</g>
			</g>
			<g>
				<g>
					<path d="M1034,697.6c0,0,13.4,17,0,32.8C1020.7,714.6,1034,697.6,1034,697.6z"/>
					<path d="M1034,734.2l-1.9-2.3c-14.5-17.1-0.2-35.8-0.1-35.9l2-2.5l2,2.5c0.1,0.2,14.4,18.8-0.1,35.9L1034,734.2z M1034,702.2       c-2.6,4.8-6.3,14.4,0,24C1040.3,716.5,1036.7,706.9,1034,702.2z"/>
				</g>
				<g>
					<line x1="1034" y1="684.9" x2="1034" y2="765.3"/>
					<rect x="1031.5" y="684.9" width="5" height="80.4"/>
				</g>
				<g>
					<circle cx="1034" cy="745.5" r="7.1"/>
					<path d="M1034,755.2c-5.3,0-9.6-4.3-9.6-9.6s4.3-9.6,9.6-9.6s9.6,4.3,9.6,9.6S1039.3,755.2,1034,755.2z M1034,740.9       c-2.5,0-4.6,2.1-4.6,4.6s2.1,4.6,4.6,4.6s4.6-2.1,4.6-4.6S1036.6,740.9,1034,740.9z"/>
				</g>
				<g>
					
						<rect x="1027.6" y="764.8" transform="matrix(-0.7071 0.7071 -0.7071 -0.7071 2310.4446 585.2185)" width="12.7" height="12.7"/>
					<path d="M1034,783.7l-12.5-12.5l12.5-12.5l12.5,12.5L1034,783.7z M1028.5,771.1l5.5,5.5l5.5-5.5l-5.5-5.5L1028.5,771.1z"/>
				</g>
			</g>
		</g>
	</g>
	<g>
		<g>
			<path d="M749.3,588.8c-26.9,0-48.8,18-48.8,40.2c0,22.2,21.8,40.2,48.8,40.2c26.9,0,48.7-18,48.7-40.2     C798,606.8,776.2,588.8,749.3,588.8z M749.3,657c-22.7,0-34.2-17.9-34.2-28.1s11.5-28.1,34.2-28.1c22.7,0,34.2,17.9,34.2,28.1     S772,657,749.3,657z"/>
			<path d="M749.3,672.1c-28.5,0-51.8-19.4-51.8-43.2s23.2-43.2,51.8-43.2c28.5,0,51.7,19.4,51.7,43.2S777.8,672.1,749.3,672.1z      M749.3,591.8c-25.2,0-45.8,16.7-45.8,37.2s20.5,37.2,45.8,37.2c25.2,0,45.7-16.7,45.7-37.2S774.5,591.8,749.3,591.8z M749.3,660     c-13.8,0-22.7-6-27.8-11.1c-5.8-5.9-9.5-13.5-9.5-20c0-11.2,12.4-31.1,37.2-31.1c13.8,0,22.7,6,27.8,11.1     c5.8,5.9,9.5,13.5,9.5,20C786.5,640.1,774.1,660,749.3,660z M749.3,603.9c-20.8,0-31.2,16.1-31.2,25.1c0,9,10.4,25.1,31.2,25.1     c20.8,0,31.2-16.1,31.2-25.1C780.5,619.9,770.1,603.9,749.3,603.9z"/>
		</g>
		<g>
			<path d="M865.7,588.8c-26.9,0-48.8,18-48.8,40.2c0,22.2,21.8,40.2,48.8,40.2c26.9,0,48.7-18,48.7-40.2     C914.4,606.8,892.6,588.8,865.7,588.8z M865.7,657c-22.7,0-34.2-17.9-34.2-28.1s11.5-28.1,34.2-28.1c22.7,0,34.2,17.9,34.2,28.1     S888.4,657,865.7,657z"/>
			<path d="M865.7,672.1c-28.5,0-51.8-19.4-51.8-43.2s23.2-43.2,51.8-43.2c28.5,0,51.7,19.4,51.7,43.2S894.2,672.1,865.7,672.1z      M865.7,591.8c-25.2,0-45.8,16.7-45.8,37.2s20.5,37.2,45.8,37.2c25.2,0,45.7-16.7,45.7-37.2S890.9,591.8,865.7,591.8z M865.7,660     c-13.8,0-22.7-6-27.8-11.1c-5.8-5.9-9.5-13.5-9.5-20c0-11.2,12.4-31.1,37.2-31.1c13.8,0,22.7,6,27.8,11.1     c5.8,5.9,9.5,13.5,9.5,20C902.9,640.1,890.5,660,865.7,660z M865.7,603.9c-20.8,0-31.2,16.1-31.2,25.1c0,9,10.4,25.1,31.2,25.1     c20.8,0,31.2-16.1,31.2-25.1C896.9,619.9,886.5,603.9,865.7,603.9z"/>
		</g>
		<g>
			<path d="M816.6,631c-2.6-2.7-5.4-4.1-8.1-4.1c-0.1,0-0.1,0-0.2,0c-4.6,0.1-8.1,4-8.1,4l-4.5-4c0.2-0.2,5.2-5.9,12.4-6.1     c4.6-0.1,8.9,1.9,12.8,5.9L816.6,631z"/>
		</g>
		<g>
			<path d="M706,647.3l73.5,76.7c8.1,8.8,12.5,20.4,12.3,32.4l-0.5,20.7c-0.1,5.9-6,10-11.6,8.1h0c-3.9-1.3-6.4-5.3-5.9-9.4     l2.2-17.8c1.6-12.5-2.1-25.1-10-34.9L706,647.3z"/>
			<path d="M782.6,788.7c-1.3,0-2.6-0.2-3.8-0.6c-5.2-1.8-8.5-7.1-7.9-12.6l2.2-17.8c1.4-11.6-2-23.5-9.3-32.6l-60.1-75.9l4.5-3.9     l73.5,76.7c8.7,9.5,13.4,21.7,13.1,34.6l-0.5,20.7C794.2,783.5,788.9,788.7,782.6,788.7z M747.7,695.2l20.7,26.2     c8.4,10.3,12.2,23.9,10.6,37.1l-2.2,17.8c-0.3,2.7,1.3,5.3,3.9,6.2c0.6,0.2,1.3,0.3,1.9,0.3c3.1,0,5.7-2.5,5.8-5.7l0.5-20.7     c0.2-11.3-3.8-22-11.5-30.3L747.7,695.2z"/>
		</g>
		<g>
			<path d="M908.5,647.3L835.1,724c-8.1,8.8-12.5,20.4-12.3,32.4l0.5,20.7c0.1,5.9,6,10,11.6,8.1h0c3.9-1.3,6.4-5.3,5.9-9.4     l-2.2-17.8c-1.6-12.5,2.1-25.1,10-34.9L908.5,647.3z"/>
			<path d="M832,788.7L832,788.7c-6.3,0-11.6-5.2-11.8-11.5l-0.5-20.7c-0.3-12.8,4.4-25.1,13.1-34.5l73.5-76.7l4.5,3.9l-60,75.9     c-7.4,9.1-10.8,21-9.4,32.6l2.2,17.8c0.7,5.5-2.6,10.8-7.9,12.6C834.6,788.5,833.3,788.7,832,788.7z M866.9,695.2l-29.6,30.9     c-7.6,8.2-11.7,19-11.4,30.3l0.5,20.7c0.1,3.1,2.7,5.7,5.8,5.7l0,0c0.6,0,1.3-0.1,1.9-0.3c2.6-0.9,4.2-3.5,3.9-6.2l-2.2-17.8     c-1.6-13.2,2.2-26.8,10.6-37.1L866.9,695.2z"/>
		</g>
		<g>
			<path d="M749.9,646.9c-9.1,0-16-3.6-16.1-3.7l2.9-5.3l-1.4,2.6l1.4-2.6c0.7,0.4,17.8,9.2,31.8-5l4.3,4.2     C765.3,644.7,756.9,646.9,749.9,646.9z"/>
		</g>
		<g>
			<path d="M866.3,646.9c-9.1,0-16-3.6-16.1-3.7l2.9-5.3l-1.4,2.6l1.4-2.6c0.7,0.4,17.8,9.2,31.8-5l4.3,4.2     C881.6,644.7,873.3,646.9,866.3,646.9z"/>
		</g>
	</g>
	<g>
		<g>
			<path d="M1202.4,301c0,1,0,2.1-0.1,3.1c0,1-0.1,2-0.1,3.1c-0.9,19.4-5.2,45.2-17.8,74.7c-17.3,40.5-17.4,74.5-14.5,95.9     c3.2,23.2,10.5,36.9,10.6,37.1l-5.3,2.9c-0.3-0.6-7.9-14.7-11.2-38.8c-3.1-22.2-3-57.4,14.9-99.4c12-28.2,16.2-52.9,17.2-71.7     c0-1,0.1-2,0.1-3c0-1,0.1-2,0.1-3c0.1-5.9-0.1-11.1-0.4-15.5c1.5-2.4,2.4-5.5,2.4-5.5s1.5,3.8,3.7,5.4     C1202.2,290.5,1202.4,295.5,1202.4,301z"/>
		</g>
		<g>
			<path d="M1214.7,271.7L1214.7,271.7c-0.5-1.4-1.1-2.7-1.7-4c-2.2-4.9-4.9-9.2-7.5-13c-0.9-1.3-1.8-2.5-2.6-3.6     c-4.3-5.5-8.3-9.5-10.4-11.4c-0.9-0.8-1.4-1.3-1.4-1.3c-0.4,4.7-1.9,9.4-3.6,13.8c-4.5,11.9-13.2,23.6-9.3,36.8     c2.3,7.8,7.4,14.7,15.9,15.8c0.7,0.1,1.4,0.1,2.1,0.1c0.8,0,1.7,0,2.5-0.1c1.3-0.1,2.5-0.4,3.6-0.7     C1217.3,300.3,1219.8,284.7,1214.7,271.7z M1207.6,283.8c-2.1,3.6-4.1,3.7-5.7,2.6c-2.2-1.5-3.7-5.4-3.7-5.4s-0.9,3.1-2.4,5.5     c-1.6,2.6-3.9,4.4-6.3,0.6c-4.7-7.3,5.8-29.4,5.8-29.4S1210.5,278.7,1207.6,283.8z"/>
			<path d="M1217.9,271.7c-0.1-0.4-0.3-0.8-0.4-1.1c-1-2.5-2.1-4.9-3.3-7.2c-1.8-3.4-3.7-6.6-5.7-9.4c-1.9-2.7-3.8-5.2-5.5-7.3     c-4.8-5.8-8.9-9.5-9.9-10.3l-0.7-0.8l-3.9-4.5l-0.6,7.2c-0.3,4.5-2,9.3-3.4,12.9c0,0,0,0.1-0.1,0.1c-1,2.8-2.3,5.5-3.7,8.3     c-4.4,9.4-8.9,19.2-5.7,30.3c3.1,10.3,9.8,16.8,18.4,17.9c0.8,0.1,1.6,0.1,2.4,0.2c0.1,0,0.2,0,0.4,0c0.9,0,1.8-0.1,2.6-0.2     c1.1-0.1,2.1-0.3,3.1-0.5c6.4-1.4,11.4-4.8,14.5-10C1220.8,290.4,1221.2,280.9,1217.9,271.7z M1202.4,301c-1.2,0.4-2.6,0.7-4,0.8     c-0.7,0.1-1.4,0.1-2.1,0.1c-0.6,0-1.2,0-1.8-0.1c-8.4-1.1-12-9-13.4-13.7c-2.7-8.9,1.2-17.2,5.3-26c1.4-2.9,2.7-5.9,3.9-8.9     c1-2.5,2-5.6,2.8-8.8c5,5.1,13.7,15.1,18.9,28.3c3.1,7.9,2.9,15.9-0.4,21.4C1209.5,297.5,1206.5,299.8,1202.4,301z"/>
		</g>
		<g>
			<path d="M1202.7,304.8c0,0-1.8,32.3-9.9,54.1c-8.1,21.8-21.1,54.1-24.3,78.2c-10.2-1-19.4-6.2-24.4-16.2     c-8.5-16.8-8.4-35.7-8.4-35.7c6.5,8,19.8,11.7,19.8,11.7c-15.8-29.3-13-78.1-13-78.1c11.9,10.9,31.8,11.3,31.8,11.3     c-20.1-20-21.8-56.8-21.8-56.8C1170.8,312.6,1202.7,304.8,1202.7,304.8z"/>
		</g>
		<g>
			<path d="M1208.6,405.3h12.5c-8.4,12.2-19.5,23.2-32,28.4c-3.8,1.6-7.8,2.7-11.7,3.2c0,0,0.7-25,17.7-71.1     c12.3-33.3,7.6-61,7.6-61c32.2-1.9,43.7-45.1,43.7-45.1c0.1,1.4,0.1,2.7,0.1,4c0,42.8-25.3,65.3-25.3,65.3     c8.2-0.8,15.9-4.2,22.2-9.5l3-2.6C1245,372.8,1208.6,405.3,1208.6,405.3z"/>
		</g>
		<g>
			<path d="M1217.4,272.9l-5.5-2.5c0.1-0.3,11.1-25.6-0.1-62.9l5.7-1.7C1229.5,245.3,1217.9,271.8,1217.4,272.9z"/>
		</g>
		<g>
			<path d="M1208.4,255.1l-5.9-1c0.1-0.3,5-33.3-14.7-66l5.1-3.1C1213.8,219.8,1208.6,253.7,1208.4,255.1z"/>
		</g>
		<g>
			<path d="M1190.3,253l-5.7-1.7c9.5-31.4-19.4-71.2-19.6-71.6l4.8-3.6c0.3,0.4,7.8,10.7,14.2,25.3     C1192.4,220.9,1194.6,238.8,1190.3,253z"/>
		</g>
		<g>
			<path d="M1183.2,268.6l-6-0.3c1.2-28.6-18.9-53.7-19.1-53.9l4.7-3.8C1163.7,211.7,1184.6,237.7,1183.2,268.6z"/>
		</g>
		<g>
			<path d="M1174.2,281.3c-2.5-23.4-19.5-40.6-19.6-40.8l4.2-4.2c0.8,0.8,18.7,18.9,21.4,44.4L1174.2,281.3z"/>
		</g>
	</g>
	<g>
		<g>
			<g>
				<path d="M1176.7,683.5c-31.5,0-57.1-25.6-57.1-57.1s25.6-57.1,57.1-57.1s57.1,25.6,57.1,57.1S1208.1,683.5,1176.7,683.5z       M1176.7,577.3c-27.1,0-49.1,22-49.1,49.1s22,49.1,49.1,49.1s49.1-22,49.1-49.1S1203.7,577.3,1176.7,577.3z"/>
			</g>
			<g>
				<g>
					<path d="M1176.7,605.4l-1.3-0.8c-15.9-9.8-16.1-28.3-16.1-29.1h5c0,0.2,0.2,15.5,12.4,24c12.3-8.5,12.4-23.8,12.4-24h5       c0,0.8-0.2,19.3-16.1,29.1L1176.7,605.4z"/>
				</g>
				<g>
					<path d="M1194.1,677.3h-5c0-0.2-0.2-15.5-12.4-24c-12.3,8.5-12.4,23.8-12.4,24h-5c0-0.8,0.2-19.3,16.1-29.1l1.3-0.8l1.3,0.8       C1193.9,658,1194.1,676.6,1194.1,677.3z"/>
				</g>
			</g>
			<g>
				<g>
					<path d="M1176.7,605.4l-1.3-0.8c-15.9-9.8-16.1-28.3-16.1-29.1h5c0,0.2,0.2,15.5,12.4,24c12.3-8.5,12.4-23.8,12.4-24h5       c0,0.8-0.2,19.3-16.1,29.1L1176.7,605.4z"/>
				</g>
				<g>
					<path d="M1194.1,677.3h-5c0-0.2-0.2-15.5-12.4-24c-12.3,8.5-12.4,23.8-12.4,24h-5c0-0.8,0.2-19.3,16.1-29.1l1.3-0.8l1.3,0.8       C1193.9,658,1194.1,676.6,1194.1,677.3z"/>
				</g>
			</g>
			<g>
				<g>
					<path d="M1125.7,643.8v-5c0.2,0,15.5-0.2,24-12.4c-8.5-12.2-23.8-12.4-24-12.4l0-5c0.8,0,19.3,0.2,29.1,16.1l0.8,1.3l-0.8,1.3       C1145.1,643.6,1126.5,643.8,1125.7,643.8z"/>
				</g>
				<g>
					<path d="M1227.6,643.8c-0.8,0-19.3-0.2-29.1-16.1l-0.8-1.3l0.8-1.3c9.8-15.9,28.3-16.1,29.1-16.1v5c-0.2,0-15.5,0.2-24,12.4       c8.5,12.2,23.8,12.4,24,12.4L1227.6,643.8z"/>
				</g>
			</g>
			<g>
				<g>
					<path d="M1200.5,612.8c-2.4,0-4.9-0.3-7.5-0.9l-1.5-0.4l-0.4-1.5c-4.4-18.2,8.6-31.4,9.2-32l3.5,3.5       c-0.1,0.1-10.8,11.1-8.2,25.7c14.7,2.6,25.6-8.1,25.7-8.2l3.5,3.5C1224.5,603.2,1214.7,612.8,1200.5,612.8z"/>
				</g>
				<g>
					<path d="M1153,674.7l-3.5-3.5c0.1-0.1,10.8-11.1,8.2-25.7c-14.6-2.6-25.6,8.1-25.8,8.2l-3.5-3.5c0.6-0.6,13.8-13.5,32-9.2       l1.5,0.4l0.4,1.5C1166.5,660.9,1153.5,674.2,1153,674.7z"/>
				</g>
			</g>
			<g>
				<g>
					<path d="M1152.8,612.8c-14.2,0-24-9.6-24.5-10.1l3.5-3.5c0.1,0.1,11.1,10.8,25.7,8.2c2.6-14.6-8.1-25.6-8.2-25.8l3.5-3.5       c0.6,0.6,13.5,13.8,9.2,32l-0.4,1.5l-1.5,0.4C1157.7,612.5,1155.2,612.8,1152.8,612.8z"/>
				</g>
				<g>
					<path d="M1200.4,674.7c-0.6-0.6-13.5-13.8-9.2-32l0.4-1.5l1.5-0.4c18.2-4.3,31.4,8.6,32,9.2l-3.5,3.5       c-0.1-0.1-11.1-10.8-25.7-8.2c-2.6,14.7,8.1,25.6,8.2,25.7L1200.4,674.7z"/>
				</g>
			</g>
			<g>
				<g>
					<path d="M1184.8,607l-0.9-1.2c-10.9-15.2-3.9-32.4-3.6-33.1l4.6,1.9c-0.1,0.1-5.8,14.4,2.2,26.9c14.6-3.1,20.7-17.2,20.7-17.3       l4.6,1.9c-0.3,0.7-7.6,17.8-26.1,20.6L1184.8,607z"/>
				</g>
				<g>
					<path d="M1173.1,680.1l-4.6-1.9c0.1-0.1,5.8-14.4-2.2-26.9c-14.5,3.1-20.7,17.2-20.7,17.3l-4.6-1.9c0.3-0.7,7.6-17.8,26.1-20.6       l1.5-0.2l0.9,1.2C1180.4,662.2,1173.4,679.4,1173.1,680.1z"/>
				</g>
			</g>
			<g>
				<g>
					<path d="M1136.6,625.3c-7.6,0-13.3-2.3-13.7-2.5l1.9-4.6c0.1,0.1,14.4,5.8,26.9-2.2c-3.1-14.6-17.2-20.7-17.3-20.7l1.9-4.6       c0.7,0.3,17.8,7.6,20.6,26.1l0.2,1.5l-1.2,0.9C1149.4,623.9,1142.5,625.3,1136.6,625.3z"/>
				</g>
				<g>
					<path d="M1216.9,662.1c-0.7-0.3-17.8-7.6-20.6-26.1l-0.2-1.5l1.2-0.9c15.2-10.9,32.4-3.9,33.1-3.6l-1.9,4.6       c-0.1-0.1-14.4-5.8-26.9,2.2c3.1,14.6,17.2,20.7,17.3,20.7L1216.9,662.1z"/>
				</g>
			</g>
			<g>
				<g>
					<path d="M1217,625.6c-5.9,0-13-1.4-19.6-6.3l-1.2-0.9l0.2-1.5c3-18.4,20.1-25.6,20.8-25.9l1.9,4.6c-0.1,0.1-14.3,6.1-17.5,20.6       c12.6,8.1,26.8,2.5,26.9,2.4l1.9,4.6C1230,623.4,1224.4,625.6,1217,625.6z"/>
				</g>
				<g>
					<path d="M1136.1,661.8l-1.9-4.6c0.1-0.1,14.3-6.1,17.5-20.6c-12.6-8.1-26.8-2.5-26.9-2.4l-1.9-4.6c0.7-0.3,18-7.2,33,3.9       l1.2,0.9l-0.2,1.5C1154,654.3,1136.9,661.5,1136.1,661.8z"/>
				</g>
			</g>
			<g>
				<g>
					<path d="M1168.7,607l-1.5-0.2c-18.4-3-25.6-20.1-25.9-20.8l4.6-1.9c0.1,0.1,6.1,14.3,20.6,17.5c8.1-12.6,2.5-26.8,2.4-26.9       l4.6-1.9c0.3,0.7,7.2,18-3.9,33L1168.7,607z"/>
				</g>
				<g>
					<path d="M1179.9,680.1c-0.3-0.7-7.2-18,3.9-33l0.9-1.2l1.5,0.2c18.4,3,25.6,20.1,25.9,20.8l-4.6,1.9       c-0.1-0.1-6.1-14.3-20.6-17.5c-8.1,12.6-2.5,26.8-2.4,26.9L1179.9,680.1z"/>
				</g>
			</g>
			<g>
				<path d="M1176.7,653.1c-14.7,0-26.7-12-26.7-26.7s12-26.7,26.7-26.7s26.7,12,26.7,26.7S1191.4,653.1,1176.7,653.1z       M1176.7,607.7c-10.3,0-18.7,8.4-18.7,18.7s8.4,18.7,18.7,18.7s18.7-8.4,18.7-18.7S1187,607.7,1176.7,607.7z"/>
			</g>
		</g>
		<g>
			<g>
				<rect x="1174.2" y="679.5" width="5" height="22.8"/>
			</g>
			<g>
				<path d="M1178.7,707l-4,0c-2.2,0-4-1.8-4-4l0-1.3c0-2.2,1.8-4,4-4l4,0c2.2,0,4,1.8,4,4l0,1.3      C1182.7,705.2,1180.9,707,1178.7,707z"/>
			</g>
			<g>
				<path d="M1188.5,734.1l4.8,2.2c2.2-17.1-11.9-25.6-11.9-25.6h-4.8h-4.8c0,0-14.1,8.5-11.9,25.6l4.8-2.2c0,0-7.9,20-5.1,32.6      l7.3-2.3c0,0-1.1,22.1,9.7,38c10.8-15.9,9.7-38,9.7-38l7.3,2.3C1196.4,754.1,1188.5,734.1,1188.5,734.1z"/>
			</g>
		</g>
		<g>
			<g>
				<rect x="1127.6" y="653.8" width="5" height="22.8"/>
			</g>
			<g>
				<path d="M1132.1,681.3l-4,0c-2.2,0-4-1.8-4-4l0-1.3c0-2.2,1.8-4,4-4l4,0c2.2,0,4,1.8,4,4l0,1.3      C1136.1,679.5,1134.3,681.3,1132.1,681.3z"/>
			</g>
			<g>
				<path d="M1142,708.4l4.8,2.2c2.2-17.1-11.9-25.6-11.9-25.6h-4.8h-4.8c0,0-14.1,8.5-11.9,25.6l4.8-2.2c0,0-7.9,20-5.1,32.6      l7.3-2.3c0,0-1.1,22.1,9.7,38c10.8-15.9,9.7-38,9.7-38l7.3,2.3C1149.9,728.4,1142,708.4,1142,708.4z"/>
			</g>
		</g>
		<g>
			<g>
				<rect x="1220.7" y="653.8" width="5" height="22.8"/>
			</g>
			<g>
				<path d="M1225.2,681.3l-4,0c-2.2,0-4-1.8-4-4l0-1.3c0-2.2,1.8-4,4-4l4,0c2.2,0,4,1.8,4,4v1.3      C1229.3,679.5,1227.4,681.3,1225.2,681.3z"/>
			</g>
			<g>
				<path d="M1235.1,708.4l4.8,2.2c2.2-17.1-11.9-25.6-11.9-25.6h-4.8h-4.8c0,0-14.1,8.5-11.9,25.6l4.8-2.2c0,0-7.9,20-5.1,32.6      l7.3-2.3c0,0-1.1,22.1,9.7,38c10.8-15.9,9.7-38,9.7-38l7.3,2.3C1243,728.4,1235.1,708.4,1235.1,708.4z"/>
			</g>
		</g>
	</g>
	<g>
		<g>
			<path d="M411,715.6C411,715.6,411,715.6,411,715.6c-40,0-78.9-7.7-115.8-23c-20.6-8.5-39-18.8-54.7-30.6     c-16.9-12.6-27.5-31.9-29.2-53c-1.7-21.1,5.7-41.9,20.4-57.1c23.9-24.9,57.5-39.2,92.1-39.2h174.6c34.6,0,68.1,14.3,92.1,39.2     c14.6,15.2,22.1,36.1,20.4,57.1c-1.7,21-12.3,40.3-29.2,53c-15.7,11.8-34.1,22.1-54.7,30.6C490,707.8,451,715.6,411,715.6z      M323.7,523.7c-31.6,0-62.2,13.1-84.1,35.8c-12.5,13-18.8,30.7-17.3,48.6c1.5,17.9,10.5,34.3,24.8,45.1     c15,11.2,32.6,21.1,52.3,29.2c35.5,14.7,73,22.1,111.6,22.1c38.5,0,76.1-7.5,111.6-22.2c19.7-8.2,37.3-18,52.3-29.2     c14.3-10.7,23.4-27.2,24.8-45c1.5-17.9-4.9-35.7-17.3-48.6c-21.9-22.8-52.5-35.8-84.1-35.8H323.7z"/>
		</g>
		<g>
			<path d="M423.9,742.8h-21.6c-7.7,0-13.9-6.2-13.9-13.9v-37.7c0-7.7,6.2-13.9,13.9-13.9h21.6c7.7,0,13.9,6.2,13.9,13.9v37.7     C437.8,736.6,431.6,742.8,423.9,742.8z"/>
			<path d="M423.9,745.8h-21.6c-9.3,0-16.9-7.6-16.9-16.9v-37.7c0-9.3,7.6-16.9,16.9-16.9h21.6c9.3,0,16.9,7.6,16.9,16.9v37.7     C440.8,738.2,433.2,745.8,423.9,745.8z M402.3,680.4c-6,0-10.9,4.9-10.9,10.9v37.7c0,6,4.9,10.9,10.9,10.9h21.6     c6,0,10.9-4.9,10.9-10.9v-37.7c0-6-4.9-10.9-10.9-10.9H402.3z"/>
		</g>
		<g>
			<path d="M354.3,738.5l-20.9-5.5c-7.4-1.9-11.8-9.5-9.9-16.9l9.5-36.5c1.9-7.4,9.5-11.8,16.9-9.9l20.9,5.5     c7.4,1.9,11.8,9.5,9.9,16.9l-9.5,36.5C369.3,736,361.7,740.4,354.3,738.5z"/>
			<path d="M357.8,741.9c-1.4,0-2.9-0.2-4.3-0.6l-20.9-5.5c-4.4-1.1-8-3.9-10.3-7.8c-2.3-3.9-2.9-8.4-1.8-12.8l9.5-36.5     c1.9-7.4,8.6-12.6,16.3-12.6c1.4,0,2.9,0.2,4.3,0.6l20.9,5.5c4.4,1.1,8,3.9,10.3,7.8c2.3,3.9,2.9,8.4,1.8,12.8l-9.5,36.5     C372.2,736.7,365.5,741.9,357.8,741.9z M346.4,672.3c-4.9,0-9.2,3.3-10.5,8.1l-9.5,36.5c-0.7,2.8-0.3,5.7,1.1,8.2s3.8,4.3,6.6,5     l20.9,5.5c0.9,0.2,1.8,0.4,2.8,0.4c4.9,0,9.2-3.3,10.5-8.1l9.5-36.5c0.7-2.8,0.3-5.7-1.1-8.2s-3.8-4.3-6.6-5l-20.9-5.5     C348.2,672.4,347.3,672.3,346.4,672.3z"/>
		</g>
		<g>
			<path d="M290,721.1l-19.5-9.3c-6.9-3.3-9.8-11.6-6.5-18.5l16.3-34c3.3-6.9,11.6-9.8,18.5-6.5l19.5,9.3c6.9,3.3,9.8,11.6,6.5,18.5     l-16.3,34C305.2,721.5,296.9,724.4,290,721.1z"/>
			<path d="M296,725.5c-2.5,0-5-0.6-7.3-1.7l-19.5-9.3c-8.4-4-11.9-14.1-7.9-22.5l16.3-34c2.8-5.8,8.8-9.6,15.2-9.6     c2.5,0,5,0.6,7.3,1.7l19.5,9.3c4.1,1.9,7.1,5.4,8.6,9.6c1.5,4.2,1.2,8.8-0.7,12.9l-16.3,34C308.4,721.7,302.4,725.5,296,725.5z      M292.8,654.4c-4.2,0-8,2.4-9.8,6.2l-16.3,34c-2.6,5.4-0.3,11.9,5.1,14.5l19.5,9.3c1.5,0.7,3.1,1.1,4.7,1.1c4.2,0,8-2.4,9.8-6.2     l16.3-34c1.3-2.6,1.4-5.6,0.5-8.3c-1-2.7-2.9-4.9-5.5-6.2l-19.5-9.3C296,654.8,294.4,654.4,292.8,654.4z"/>
		</g>
		<g>
			<path d="M231,691.4l-17.6-12.6c-6.2-4.4-7.7-13.1-3.2-19.3l21.9-30.7c4.4-6.2,13.1-7.7,19.3-3.2l17.6,12.6     c6.2,4.4,7.7,13.1,3.2,19.3l-21.9,30.7C245.9,694.4,237.3,695.9,231,691.4z"/>
			<path d="M239.1,697c-3.5,0-6.9-1.1-9.8-3.1l-17.6-12.6c-7.6-5.4-9.3-15.9-3.9-23.5l21.9-30.7c3.2-4.4,8.3-7.1,13.7-7.1     c3.5,0,6.9,1.1,9.8,3.1l17.6,12.6c7.6,5.4,9.3,15.9,3.9,23.5L252.8,690C249.6,694.4,244.5,697,239.1,697z M243.4,626     c-3.5,0-6.8,1.7-8.8,4.5l-21.9,30.7c-3.5,4.9-2.3,11.7,2.5,15.1l17.6,12.6c1.9,1.3,4,2,6.3,2c3.5,0,6.8-1.7,8.8-4.5l21.9-30.7     c3.5-4.9,2.3-11.7-2.5-15.1l-17.6-12.6C247.8,626.7,245.7,626,243.4,626z"/>
		</g>
		<g>
			<g>
				<polygon points="413.1,780.6 397.6,740 403.2,737.9 413.1,763.8 423,737.9 428.6,740     "/>
			</g>
			<g>
				<circle cx="413.1" cy="784.4" r="16.4"/>
				<path d="M413.1,803.9c-10.7,0-19.4-8.7-19.4-19.4s8.7-19.4,19.4-19.4s19.4,8.7,19.4,19.4S423.8,803.9,413.1,803.9z M413.1,771      c-7.4,0-13.4,6-13.4,13.4c0,7.4,6,13.4,13.4,13.4s13.4-6,13.4-13.4C426.5,777,420.5,771,413.1,771z"/>
			</g>
		</g>
		<g>
			<g>
				<polygon points="332.9,772.9 329.8,729.5 335.8,729.1 337.8,756.8 354.8,734.8 359.5,738.5     "/>
			</g>
			<g>
				<circle cx="331.8" cy="776.5" r="16.4"/>
				<path d="M331.8,796c-1.9,0-3.8-0.3-5.6-0.8c-5-1.5-9.1-4.9-11.5-9.4c-2.4-4.6-3-9.8-1.5-14.8c2.5-8.3,10-13.8,18.6-13.8      c1.9,0,3.8,0.3,5.6,0.8c5,1.5,9.1,4.9,11.5,9.4c2.4,4.6,3,9.8,1.5,14.8C347.9,790.4,340.4,796,331.8,796z M331.8,763.1      c-5.9,0-11.2,3.9-12.9,9.5c-1,3.4-0.7,7.1,1,10.2c1.7,3.2,4.5,5.5,8,6.5c1.3,0.4,2.6,0.6,3.9,0.6c5.9,0,11.2-3.9,12.9-9.5      c1-3.4,0.7-7.1-1-10.2c-1.7-3.2-4.5-5.5-8-6.5C334.4,763.3,333.1,763.1,331.8,763.1z"/>
			</g>
		</g>
		<g>
			<g>
				<polygon points="263.1,752.3 267.6,709.1 273.6,709.7 270.7,737.4 291.3,718.7 295.3,723.1     "/>
			</g>
			<g>
				<circle cx="261.4" cy="755.8" r="16.4"/>
				<path d="M261.4,775.2c-3.1,0-6-0.7-8.8-2.1c-9.6-4.8-13.4-16.6-8.6-26.1c3.3-6.6,10-10.7,17.4-10.7c3.1,0,6,0.7,8.8,2.1      c9.6,4.8,13.4,16.6,8.6,26.1C275.4,771.1,268.7,775.2,261.4,775.2z M261.4,742.3c-5.1,0-9.7,2.8-12,7.4      c-3.3,6.6-0.7,14.7,5.9,18.1c1.9,1,3.9,1.5,6.1,1.5c5.1,0,9.7-2.8,12-7.4c3.4-6.6,0.7-14.7-5.9-18.1      C265.5,742.8,263.5,742.3,261.4,742.3z"/>
			</g>
		</g>
		<g>
			<g>
				<polygon points="200.3,717.6 209.9,675.2 215.7,676.5 209.6,703.6 232.2,687.5 235.7,692.4     "/>
			</g>
			<g>
				<circle cx="198.2" cy="720.8" r="16.4"/>
				<path d="M198.2,740.2c-3.8,0-7.5-1.1-10.7-3.3c-8.9-5.9-11.4-18-5.4-27c3.6-5.4,9.7-8.7,16.2-8.7c3.8,0,7.5,1.1,10.7,3.3      c8.9,5.9,11.4,18,5.4,27C210.8,737,204.7,740.2,198.2,740.2z M198.2,707.3c-4.5,0-8.7,2.2-11.2,6c-4.1,6.2-2.4,14.5,3.7,18.6      c2.2,1.5,4.8,2.2,7.4,2.2c4.5,0,8.7-2.2,11.2-6c4.1-6.2,2.4-14.5-3.7-18.6C203.4,708.1,200.8,707.3,198.2,707.3z"/>
			</g>
		</g>
		<g>
			<path d="M402.5,742.8h21.6c7.7,0,13.9-6.2,13.9-13.9v-37.7c0-7.7-6.2-13.9-13.9-13.9h-21.6c-7.7,0-13.9,6.2-13.9,13.9v37.7     C388.6,736.6,394.8,742.8,402.5,742.8z"/>
			<path d="M424.1,745.8h-21.6c-9.3,0-16.9-7.6-16.9-16.9v-37.7c0-9.3,7.6-16.9,16.9-16.9h21.6c9.3,0,16.9,7.6,16.9,16.9v37.7     C440.9,738.2,433.4,745.8,424.1,745.8z M402.5,680.4c-6,0-10.9,4.9-10.9,10.9v37.7c0,6,4.9,10.9,10.9,10.9h21.6     c6,0,10.9-4.9,10.9-10.9v-37.7c0-6-4.9-10.9-10.9-10.9H402.5z"/>
		</g>
		<g>
			<path d="M472.1,738.5L493,733c7.4-1.9,11.8-9.5,9.9-16.9l-9.5-36.5c-1.9-7.4-9.5-11.8-16.9-9.9l-20.9,5.5     c-7.4,1.9-11.8,9.5-9.9,16.9l9.5,36.5C457.1,736,464.7,740.4,472.1,738.5z"/>
			<path d="M468.6,741.9c-7.7,0-14.4-5.2-16.3-12.6l-9.5-36.5c-1.1-4.4-0.5-8.9,1.8-12.8c2.3-3.9,5.9-6.7,10.3-7.8l20.9-5.5     c1.4-0.4,2.8-0.6,4.3-0.6c7.7,0,14.4,5.2,16.3,12.6l9.5,36.5c1.1,4.4,0.5,8.9-1.8,12.8c-2.3,3.9-5.9,6.7-10.3,7.8l-20.9,5.5     C471.5,741.7,470,741.9,468.6,741.9z M480,672.3c-0.9,0-1.9,0.1-2.8,0.4l-20.9,5.5c-2.8,0.7-5.2,2.5-6.6,5s-1.9,5.4-1.1,8.2     l9.5,36.5c1.2,4.8,5.6,8.1,10.5,8.1c0.9,0,1.9-0.1,2.8-0.4l20.9-5.5c2.8-0.7,5.2-2.5,6.6-5s1.9-5.4,1.1-8.2l-9.5-36.5     C489.2,675.6,484.9,672.3,480,672.3z"/>
		</g>
		<g>
			<path d="M536.4,721.1l19.5-9.3c6.9-3.3,9.8-11.6,6.5-18.5l-16.3-34c-3.3-6.9-11.6-9.8-18.5-6.5l-19.5,9.3     c-6.9,3.3-9.8,11.6-6.5,18.5l16.3,34C521.2,721.5,529.5,724.4,536.4,721.1z"/>
			<path d="M530.4,725.5C530.4,725.5,530.4,725.5,530.4,725.5c-6.5,0-12.4-3.8-15.2-9.6l-16.3-34c-1.9-4.1-2.2-8.6-0.7-12.9     c1.5-4.2,4.6-7.7,8.6-9.6l19.5-9.3c2.3-1.1,4.7-1.7,7.3-1.7c6.5,0,12.4,3.8,15.2,9.6l16.3,34c4,8.4,0.5,18.5-7.9,22.5l-19.5,9.3     C535.4,724.9,532.9,725.5,530.4,725.5z M533.6,654.4c-1.6,0-3.2,0.4-4.7,1.1l-19.5,9.3c-2.6,1.3-4.6,3.4-5.5,6.2     c-1,2.7-0.8,5.7,0.5,8.3l16.3,34c1.8,3.7,5.6,6.2,9.8,6.2c0,0,0,0,0,0c1.6,0,3.2-0.4,4.7-1.1l19.5-9.3c5.4-2.6,7.7-9.1,5.1-14.5     l-16.3-34C541.6,656.8,537.8,654.4,533.6,654.4z"/>
		</g>
		<g>
			<path d="M595.3,691.4l17.6-12.6c6.2-4.4,7.7-13.1,3.2-19.3l-21.9-30.7c-4.4-6.2-13.1-7.7-19.3-3.2l-17.6,12.6     c-6.2,4.4-7.7,13.1-3.2,19.3l21.9,30.7C580.5,694.4,589.1,695.9,595.3,691.4z"/>
			<path d="M587.3,697L587.3,697c-5.4,0-10.6-2.6-13.7-7.1l-21.9-30.7c-5.4-7.6-3.6-18.1,3.9-23.5l17.6-12.6     c2.9-2.1,6.3-3.1,9.8-3.1c5.4,0,10.6,2.6,13.7,7.1l21.9,30.7c5.4,7.6,3.6,18.1-3.9,23.5l-17.6,12.6     C594.2,695.9,590.8,697,587.3,697z M583,626c-2.3,0-4.4,0.7-6.3,2l-17.6,12.6c-4.9,3.5-6,10.3-2.5,15.1l21.9,30.7     c2,2.8,5.3,4.5,8.8,4.5c2.3,0,4.4-0.7,6.3-2l17.6-12.6c4.9-3.5,6-10.3,2.5-15.1l-21.9-30.7C589.8,627.7,586.5,626,583,626z"/>
		</g>
		<g>
			<g>
				<polygon points="413.3,780.6 397.8,740 403.4,737.9 413.3,763.8 423.2,737.9 428.8,740     "/>
			</g>
			<g>
				<circle cx="413.3" cy="784.4" r="16.4"/>
				<path d="M413.3,803.9c-10.7,0-19.4-8.7-19.4-19.4s8.7-19.4,19.4-19.4s19.4,8.7,19.4,19.4S424,803.9,413.3,803.9z M413.3,771      c-7.4,0-13.4,6-13.4,13.4c0,7.4,6,13.4,13.4,13.4s13.4-6,13.4-13.4C426.7,777,420.7,771,413.3,771z"/>
			</g>
		</g>
		<g>
			<g>
				<polygon points="493.5,772.9 466.8,738.5 471.6,734.8 488.6,756.8 490.6,729.1 496.6,729.5     "/>
			</g>
			<g>
				<circle cx="494.6" cy="776.5" r="16.4"/>
				<path d="M494.6,796c-8.6,0-16.1-5.5-18.6-13.8c-1.5-5-1-10.2,1.5-14.8c2.4-4.6,6.5-7.9,11.5-9.4c1.8-0.6,3.7-0.8,5.6-0.8      c8.6,0,16.1,5.5,18.6,13.8c1.5,5,1,10.2-1.5,14.8c-2.4,4.6-6.5,7.9-11.5,9.4C498.4,795.7,496.5,796,494.6,796z M494.6,763.1      c-1.3,0-2.6,0.2-3.9,0.6c-3.4,1-6.3,3.4-8,6.5c-1.7,3.2-2.1,6.8-1,10.2c1.7,5.6,7,9.5,12.9,9.5c1.3,0,2.6-0.2,3.9-0.6      c3.4-1,6.3-3.4,8-6.5c1.7-3.2,2.1-6.8,1-10.2C505.7,767,500.5,763.1,494.6,763.1z"/>
			</g>
		</g>
		<g>
			<g>
				<polygon points="563.3,752.3 531.1,723.1 535.1,718.7 555.7,737.4 552.8,709.7 558.8,709.1     "/>
			</g>
			<g>
				<circle cx="565" cy="755.8" r="16.4"/>
				<path d="M565,775.2L565,775.2c-7.4,0-14-4.1-17.4-10.7c-4.8-9.6-1-21.3,8.6-26.1c2.8-1.4,5.7-2.1,8.8-2.1      c7.4,0,14,4.1,17.4,10.7c4.8,9.6,1,21.3-8.6,26.1C571,774.5,568.1,775.2,565,775.2z M565,742.3c-2.1,0-4.2,0.5-6.1,1.5      c-6.6,3.4-9.3,11.5-5.9,18.1c2.3,4.5,6.9,7.4,12,7.4h0c2.1,0,4.2-0.5,6.1-1.5c6.6-3.4,9.3-11.5,5.9-18.1      C574.7,745.1,570.1,742.3,565,742.3z"/>
			</g>
		</g>
		<g>
			<g>
				<polygon points="626.1,717.6 590.7,692.4 594.1,687.5 616.8,703.6 610.7,676.5 616.5,675.2     "/>
			</g>
			<g>
				<circle cx="628.2" cy="720.8" r="16.4"/>
				<path d="M628.2,740.2C628.2,740.2,628.2,740.2,628.2,740.2c-6.5,0-12.6-3.2-16.2-8.7c-5.9-8.9-3.5-21,5.4-27      c3.2-2.1,6.9-3.3,10.7-3.3c6.5,0,12.6,3.2,16.2,8.7c2.9,4.3,3.9,9.5,2.9,14.6c-1,5.1-4,9.5-8.3,12.4      C635.8,739.1,632,740.2,628.2,740.2z M628.2,707.3c-2.6,0-5.2,0.8-7.4,2.2c-6.2,4.1-7.9,12.5-3.7,18.6c2.5,3.8,6.7,6,11.2,6      c0,0,0,0,0,0c2.6,0,5.2-0.8,7.4-2.2c3-2,5-5,5.7-8.5c0.7-3.5,0-7.1-2-10.1C636.9,709.6,632.7,707.3,628.2,707.3z"/>
			</g>
		</g>
	</g>
</g>
</svg>
